<svg viewBox="0 0 721 563" xmlns="http://www.w3.org/2000/svg" xml:space="preserve" fill-rule="evenodd" clip-rule="evenodd" stroke-linecap="round" stroke-linejoin="round" stroke-miterlimit="1.5">
  <path d="M6.55 98.5h181.42v22.68h22.68V75.83h-68.03v68.03H256v340.16h385.52V98.5H301.36v22.67h362.83v90.71H233.33v45.36h68.03V189.2h90.7V75.83h45.36V302.6H301.36v22.68h45.35v22.67h45.36v45.36h136.06V257.25h-204.1v181.41h181.42V279.92h45.36V416h-68.03V166.54h90.7v204.1H233.33V302.6h-90.71v22.68H460.1v-90.71H187.97v204.1h249.45v68.02h-294.8V347.95H29.23V189.21h68.03v249.45h68.04V166.54H29.23v181.41h181.42V189.21h385.51v249.45h90.71V325.28h-68.03v45.35h90.7V416H369.4v45.35h113.39V143.86H301.36V7.8h226.77v226.77H403.4v11.34h147.4V132.52H358.05v136.06h90.7v79.37h136.07v-90.7h34.02V393.3H278.68v158.74h-45.35V393.3H29.23v79.37h408.2" fill="none" stroke="#7e7e7e" stroke-width="1.5"/>
</svg>