<svg viewBox="0 0 1083 115" xmlns="http://www.w3.org/2000/svg" xml:space="preserve" fill-rule="evenodd" clip-rule="evenodd" stroke-linejoin="round" stroke-miterlimit="2">
    <defs>
        <linearGradient id="gradient-fill" gradientTransform="rotate(68)">
            <stop offset="0%" stop-color="#ddb234" />
            <stop offset="5%" stop-color="#fecd3f" />
            <stop offset="18%" stop-color="#ffffff" />
            <stop offset="42%" stop-color="#fecd3f" />
            <stop offset="50%" stop-color="#ddb234" />
            <stop offset="64%" stop-color="#c18c00" />
            <stop offset="76%" stop-color="#363844" />
            <stop offset="86%" stop-color="#c18c00" />
            <stop offset="100%" stop-color="#fecd3f" />
        </linearGradient>
    </defs>
    <path style="fill:url(#gradient-fill)" d="M11.55 3.43a8.3 8.3 0 0 0-7.19 6.33c-.14.65-.15 2.07-.15 47.11 0 50.4-.03 46.87.4 48.13.98 2.84 3.7 5 6.77 5.38.47.07 18.58.08 63.2.07l62.56-.03.74-.2a8.45 8.45 0 0 0 5.97-5.74l.21-.73V10.13l-.17-.6a8.09 8.09 0 0 0-4.55-5.36 8.48 8.48 0 0 0-2.71-.74c-.83-.1-124.35-.09-125.08 0ZM135.5 7.51a5.81 5.81 0 0 1 4.16 3.4c.44 1.1.41-2.09.42 46.09 0 43.74 0 44.5-.16 45.17-.1.46-.26.9-.5 1.38-.32.6-.48.8-1.1 1.38a5.77 5.77 0 0 1-2.94 1.53c-.73.14-1.43.14-61.52.13l-60.77-.03-.56-.16a5.68 5.68 0 0 1-4.2-4.35c-.1-.46-.12-7.07-.12-45.1 0-48.4-.03-45.05.41-46.08a5.89 5.89 0 0 1 4.47-3.43c.08-.02 27.54-.03 61-.04 55.73 0 60.9 0 61.4.1Zm29.55 71.43a10.38 10.38 0 1 1-.01 20.76 10.38 10.38 0 0 1 0-20.76Zm-47.86-22.1c-.04.05-.6.43-1.26.85l-1.2.75-.1 1.05c-.37 3.98-1.5 8.3-3.17 12.13a40.84 40.84 0 0 1-14.83 17.55 39.7 39.7 0 0 1-22.03 6.58 39.5 39.5 0 0 1-17.58-4.04 39.53 39.53 0 0 1-10.25-7.14l-1.2-1.13-1.35.14c-.74.08-1.42.17-1.5.2-.13.05 0 .21.82 1.1A42.68 42.68 0 0 0 71.5 98.17c1.44.12 4.8.12 6.15.02a42.59 42.59 0 0 0 24.97-10.39 42.73 42.73 0 0 0 14.34-26.55c.31-2.35.43-4.7.24-4.4Zm47.87 24.59a7.98 7.98 0 1 1 0 15.96 7.98 7.98 0 0 1 0-15.96ZM109.9 61.24c-.71.4-.75.44-1.12 1.05-.7 1.18-.72 1.27-.77 2.69l-.04 1.27-.3.28c-.35.32-.4.6-.18 1.03.1.2.12.43.1 1.1-.06 1.16-.17 1.4-.8 1.63-.6.23-1.6.8-2.07 1.18-.6.5-.75.8-.88 1.76-.13 1-.25 1.27-.68 1.54a2.8 2.8 0 0 0-1.22 2.18c0 .38-.19.7-.43.7-.17 0-.51.44-.58.74l-.09.4c-.02.09-.29.3-.59.47-.58.34-1.05.8-1.05 1.04-.04 2.82-.08 3.05-.72 3.31a10.3 10.3 0 0 0-2.85 2.5.55.55 0 0 1-.4.3c-.16.04-.47.14-.7.23-.4.14-.48.22-1.09 1.08a6.08 6.08 0 0 1-1.51 1.6c-.47.37-.96.73-1.1.79-.3.15-.58.08-.8-.2-.14-.18-.14-.24-.05-.45.06-.14.36-.46.67-.71.99-.81 2.08-2.26 2.08-2.75 0-.1.21-.58.46-1.09l.46-.92.06-1.37c.05-1.42.15-1.97.4-2.48.12-.22.16-.48.16-.94 0-.98.1-1.36.53-2 .72-1.07.85-1.58.75-2.96-.09-1.22-.11-1.3-.48-1.74a13.6 13.6 0 0 1-1.59-2.74c-.05-.18-.13-.25-.36-.31-.25-.07-.4-.03-1.07.24a4.1 4.1 0 0 0-.78.37c0 .03.29.21.64.42 1.15.67 1.32.88 1.5 1.9a4 4 0 0 0 .35 1.09c.33.6.45 1.2.4 2.07-.02.68-.02.72-.43 1.39a3.9 3.9 0 0 0-.68 1.63c0 .14-.13.65-.6 2.37-.06.2-6.19 3.13-6.3 3.01-.02-.01-.54-1.56-1.16-3.42-1-3-2.4-6.97-2.48-7.05-.03-.04-1.44.45-1.52.52-.02.03.15.55.39 1.15 1.23 3.03 3.56 9.28 3.48 9.34a55.9 55.9 0 0 1-9.94 2.86c-.35 0-2.76-2.16-4.32-3.87a43.41 43.41 0 0 1-3.67-4.64l-.12-.16-.62.19c-.34.1-.62.22-.62.25 0 .08.59.92 1.43 2.04a41.04 41.04 0 0 0 5.38 5.78c.48.4.83.76.77.77-.06.03-.27.06-.47.09l-1.13.16c-1.96.3-4.69.54-7.2.65l-1.1.05-1.1-.8a38 38 0 0 1-6.44-5.88l-.26-.3-.75.14c-1.16.23-1.14.11-.14 1.26a39.4 39.4 0 0 0 5.5 5.1c.22.18.42.35.42.37 0 .12-2.38-.04-4.47-.28-1.18-.14-1.2-.14-1.41.02a.81.81 0 0 0-.28.4c-.08.28.1.72.31.83.17.1 1.65.3 3.02.43.5.05 1.89.1 3.07.13l2.14.04.75.45A33.43 33.43 0 0 0 73.9 94.4c1.18.22 2.57.37 3.3.37.66 0 .74-.01.85-.17.32-.47 0-.96-.6-.96-1.56 0-4.76-.69-7.16-1.53-1.46-.52-4.4-1.84-4.52-2.03-.02-.02.61-.1 1.4-.15 1.77-.12 4.73-.5 6.43-.8l1.28-.23.67.47a33.9 33.9 0 0 0 5.7 3.1c1.34.55 2.68 1.02 2.94 1.03.45.01.7-.47.4-.8a6.52 6.52 0 0 0-1.32-.6 31.93 31.93 0 0 1-5.62-2.73c-1.36-.86-1.34-.76-.27-1.02a72.3 72.3 0 0 0 7.33-2.22l.67-.25.07.19c.37.98 1.34 4.29 1.63 5.6.09.39.2.76.25.81.13.16.58.14.74-.03.18-.2.17-.4-.08-1.57-.25-1.23-.5-2.21-1.02-4.02a7.44 7.44 0 0 1-.33-1.46 71.34 71.34 0 0 0 4.15-1.92c1-.5 1.83-.89 1.84-.87.02.01 0 .29-.05.6-.1.63-.3 1.09-.57 1.33-.36.32-.71 1.1-1.16 2.55-.13.44-.42.77-.95 1.1-.57.34-.7.55-.8 1.34-.13.83-.22 1.11-.47 1.48-.14.2-.22.43-.22.64 0 .28.03.33.22.4.57.2 2.02-.27 3.19-1.04a5.49 5.49 0 0 0 2.15-2.33c.43-.9.6-1.02 1.32-1.02.58 0 1.07-.21 1.34-.58.1-.15.35-.56.53-.92.4-.8.71-1.2.91-1.14.17.04.8-.59 1.11-1.1.27-.42.8-1.95.9-2.61.11-.67.3-1.02.67-1.25a9.18 9.18 0 0 0 1.76-2.12c.24-.43.4-.6.4-.38a33.01 33.01 0 0 1-4.05 7.82c-.67.97-.76 1.25-.49 1.5.27.24.47.16.9-.36.5-.6 1.93-2.74 2.47-3.71a36.97 36.97 0 0 0 2.71-6.02c.18-.55.2-.59.89-1.12a38.77 38.77 0 0 0 5.28-5.06c.56-.67.7-.9.7-1.1 0-.32-.22-.52-.55-.52-.2 0-.37.13-1.18 1.02-1.15 1.28-4.03 3.9-4.28 3.9-.04 0-.04-.15 0-.34a7 7 0 0 0 .07-.71c0-.23.08-.49.2-.67.18-.3.62-.62.84-.62.23 0 .63-.24 1.09-.65.24-.22.47-.4.53-.4.23 0 .55-.5.83-1.26l.53-1.49c.22-.6.25-.78.23-1.41l-.03-1.5c-.02-.87.12-1.42.52-2 .57-.82.93-1.97.64-2.02-.07 0-.46.17-.86.4Zm57.1 28.72c.29 0 1.44-.05 1.88-.77.54-.9.57-2 .51-2.85-.06-.92-.29-1.93-1.32-2.41-1.04-.48-5.8-.35-6.68-.38-.88-.03-1.1.59-1.13 1.02l-.06 9.8 2.15.05.03-4.17s1.13-.17 2.27.1c.7.15 1.97 1.25 2.62 2.22.53.8.75 1.85.75 1.85s2.27.14 2.27.04c-.03-.81-1.39-2.78-1.92-3.48-.66-.88-1.2-1-1.37-1.02Zm0 0a.3.3 0 0 0-.05 0h-.02.07Zm-4.62-1.84.03-2.84 3.03-.07s1.45.1 1.76.75c.44.94.04 1.49.04 1.49s-.17.57-1.25.71c-1.07.15-3.61-.04-3.61-.04Zm285.2-51.67c.52.36 3.18.67 3.5.18 1.25-1.98 2.44-10.52 2.23-13.03-.22-2.67-1.57-3.96-1.57-3.96s-14.85-12.5-37.5-7.15c-22.65 5.36-30.84 23.66-32.2 30.62-1.35 6.97-.77 3.44-.77 3.44s-3.78.76-4.76 1.84c-.98 1.07-1.6 3.25-1.12 4.62.4 1.16 5.64 1.37 5.64 1.37s-2.24 14.45 14.81 25.52c9.8 6.35 32.02 6.02 41.37 1.47 8.73-4.25 11.94-8.16 13.3-9.38 1.36-1.21.84-3.5.84-3.5s-1-1.11-2.72-.42c-1.7.69-3.62 5.68-15.42 6.61-11.8.94-20.15 1.01-29.61-4.53s-12.2-10.9-12.6-13.53c-.42-2.63.12-2.3.12-2.3l34.36.01s2.17.1 4.12-1.75c2.13-2 4.28-3.48 5.23-4.87.66-.96 1.57-2.56.47-3.46-1.46-1.18-3.33-.52-3.33-.52l-4.48 2.74-35.6.07s-.78-8.9 8.52-17.07c9.3-8.17 19.15-9.07 25.23-8.48 8.87.85 10.93 2.33 14.82 4.7 3.9 2.37 5.6 4.24 6.55 6.07.94 1.83-.3 4.1.58 4.7Zm196.65 23.98s1.39-1.75-.02-2.14c-1.4-.4-1.98-.88-4.14.63-2.17 1.5-4.59 4.14-4.52 7.81.1 4.78 2.04 10.8 9.65 13.36 9.08 3.06 17.5 4.82 30.28 3.54 12.8-1.28 20.39-5.3 26.5-11.26 6.1-5.97 8.46-13.52 6.63-17.46-1.82-3.94-4.6-7.96-13.46-10.55-8.85-2.58-19.35-6.42-22.74-8.39-3.38-1.97-9.58-4.29-5.14-10.32 2.25-3.06 3.61-3.66 5.36-4.58 1.7-.9 2.4-1.84 6.93-2.53 6.42-.97 12.38-.64 17.35 1.89 4.97 2.53 5.93 4.04 6.62 6.9.69 2.86.47 4.24.47 4.24s.62 1.24 2.32.08c1.7-1.16 6.57-6.53 6.57-6.53s.68-1.66-.53-3.6c-1.2-1.96-3.48-6.25-12.25-7.14-8.77-.9-16.67-.87-26.06 1.38-6.9 1.65-14.97 7.07-16.52 10.8-1.21 2.9-1.42 6.92 3.2 12.47 4.53 5.48 10.22 7.54 17.83 9.9 9.73 3.03 13.97 3.96 18.6 7.05 4.74 3.15 4.98 5.31 4.16 9.34-.83 4.02-2.87 7.9-8.75 9.26-5.88 1.36-15.74 1.6-24.8.83-9.05-.78-16.22-3.3-20-5.87-3.77-2.58-5.01-5.87-3.53-9.1Zm-530.8-32.57c-1.05.11-1.87.24-3.08.5-1.63.31-1.52.25-1.15.65.17.18.37.42.43.51l.13.19 1-.2c1.94-.38 2.94-.48 4.68-.48 1.86 0 2.48.1 3.42.53.63.3 1.2.84 1.35 1.31.33 1-.62 2.6-2.28 3.87-1.87 1.44-9.17 5.68-14.97 8.71-.54.28-1.2.62-1.46.77-1.15.63-7.98 4-10.43 5.16-14.75 6.93-27.2 11.46-40.49 14.72a120.87 120.87 0 0 1-15.37 2.83c-.3.04-.96.13-1.45.22-1.51.26-2.86.4-4.12.4-2.26 0-3.7-.4-4.64-1.25-.49-.46-.66-.84-.66-1.57 0-1.12.45-1.98 1.66-3.21a19.4 19.4 0 0 1 4.58-3.3l.55-.31v-.64c0-.42-.03-.64-.09-.64-.12 0-1.8.92-2.71 1.49-2.76 1.7-4.55 3.6-5.09 5.42-.1.32-.14.74-.14 1.25 0 .73.04.87.54 2.39l1.5 4.65 1.5 4.6c1.61 4.93 1.52 4.72 2.11 5.29.47.45 1.04.69 2.2.9 3.12.58 8 .6 12.71.08 11.79-1.33 27.25-5.66 44.42-12.43 17.12-6.76 30.65-14.39 36.91-20.8 1.7-1.76 1.91-2.17 1.83-3.71-.07-1.47-.17-1.78-2.5-7.77-.57-1.42-1.44-3.67-1.96-5a61.2 61.2 0 0 0-1.18-2.94c-.57-1.12-1.81-1.84-3.72-2.16-.83-.13-2.98-.15-4.04-.03Zm441.71 46.12c-.01 1.19.14 3.76.47 5.1.32 1.35-.12 2.1 1.82 2.38 1.93.3 7.12.85 11.82.41 4.7-.43 5.83-.86 10.43-3.2 4.61-2.32 10.7-9.73 12.91-10.78 2.21-1.05 2.55-1.55 3.5-.8.96.76 12.45 8.78 13.9 10.67 1.47 1.9 1.6 3.14 3.89 2.78 2.3-.36 2.35-.03 2.7-1.36.37-1.32 3.82-15.75 3.82-15.75l2.52-.42 4.63-.14 1.76-3.76s1.04-2.28-.43-2.47c-1.47-.2-5.2-.3-6.28-.39-.46-.04-.06-1.42-.06-1.42l7.81-29.94s2.28-5.5.72-5.88c-1.57-.37-7.51-.32-11.5.14-4 .45-10.8 2.43-15.72 8.27-3.86 4.58-4.22 5.66-7.07 12.84-2.86 7.17-5.07 15.07-5.07 15.07s-5.19.01-6.48.17c-.5.06-1.1.3-1.3.75-.51 1.27-1.83 6.86-1.83 6.86s.1 1.66 1.35 1.13c1.74-.73 5-.62 5-.62s-.17 1.99-1.74 3.04-6.88 5.55-11.51 5.9a96.8 96.8 0 0 1-14.77-.3c-2.75-.35-4.37-.65-4.74-.3-.48.44-.54 1.32-.55 2.02ZM46.67 67.9c.25.07.61.2.8.3.47.24 1.2.97 1.43 1.41.1.21.6 1.76 1.11 3.46 1.02 3.37 1.09 3.73.8 4.55a2.77 2.77 0 0 1-1.28 1.43c-.3.15-.97.3-2.24.54l-2.47.44c-.86.16-1.37.15-1.99-.04a3.44 3.44 0 0 1-2.07-1.74c-.08-.18-.56-1.74-1.06-3.46-.99-3.43-1.03-3.68-.72-4.48.24-.65.92-1.33 1.53-1.52.51-.16 5-1 5.4-1 .17 0 .5.05.76.11Zm714.9-3.43c.57 1.2 1 3.17 3.25 4 2.26.85 5.05 1.66 9.07 1.4 4.03-.27 5.43-.9 7.1-1.4 1.68-.48 3.78-2.57 4.23-.83.45 1.75-2.35 4.65-4.61 6.36-2.24 1.69-6.95 4.12-11.2 4.16-4.25.04-10.06-1.45-12.27-3.9-2.2-2.47-6.39-11.3-.87-19.39 4.08-6 11.03-8.88 17.18-8.26 4.22.43 6.1 1.39 8.68 5 2.58 3.6 2.3 4.97 2 6.62-.28 1.66-1.63 1.77-3.54 2.38-1.9.61-5.7 1.69-8.15 1.93-2.46.23-8.87 1.2-8.87 1.2s-2.16.38-2 .74Zm-259.05-6.84c.63.5.98 1.72 2 .82 1.01-.9 4.8-5.73 4.8-5.73l.83-1.46s-5.36-3.47-11.42-3.24c-6.06.23-9.63.94-13.32 3.14-3.69 2.2-6.55 6.13-7.26 9.13-.76 3.18.23 8.32 1.7 10.48 1.73 2.52 4.87 5.4 8.51 6.37 1.64.44 3.13.66 4.5.7 3.56.14 6.4-.83 9.16-1.83 3.83-1.38 5.02-3.15 6.62-4.96 1.6-1.82 2.03-4.12 2.03-4.12s-.18-1.5-1.86-1.1c-1.68.4-4.46 1.54-8.5 2.12-4.04.57-6.24.11-8.96-.86-3.31-1.2-5.4-3.03-5.94-6.83-.54-3.78 1.16-5.1 4.96-6.32 3.11-1 5.3-.2 7.41.97 2.1 1.16 3.74 1.93 4.74 2.72Zm-443 6.77c.08.06.25.42.39.8l1.48 4.16c.7 1.9 1.43 3.98 1.65 4.6.45 1.24.49 1.5.28 1.68a6.2 6.2 0 0 1-1.97.51c-.27-.09-.4-.35-.97-1.95-.32-.88-.7-1.92-.83-2.32-.14-.39-.29-.7-.34-.68-.04.03-1 .25-2.14.5l-2.09.49.24.7a47.34 47.34 0 0 1 1.45 4.15c0 .28-.26.4-1.1.56-.97.17-1.11.16-1.3-.06-.1-.1-.83-2.04-1.68-4.42L50.76 68c-.35-.97-.38-1.2-.17-1.37.07-.08.54-.24 1.03-.36 1.12-.28 1.2-.25 1.49.59.65 1.95 1 2.86 1.08 2.83l2.14-.51a13.2 13.2 0 0 0 2.03-.56c0-.05-.27-.85-.61-1.78-.75-2.07-.77-2 .37-2.32.87-.24 1.2-.27 1.4-.13ZM519.8 26.1s-6.77 42.45-8 46.6c-1.22 4.16-1.41 3.99-.13 4.27 1.27.27 2.66.86 4.47-.47 1.81-1.34 6.8-7.75 9.77-11.25 2.07-2.43 7.93-8.52 8.3-6.94.37 1.59-.38 10.58-.14 12.75.24 2.16.67 2.76 1.44 3.84a8.22 8.22 0 0 0 3.13 2.63c.92.36 2.96-.26 2.96-.26s2.63-1.01 4.06-2.06c1.42-1.05.9-2.3.9-2.3-.27.08-2.44-.85-3.4-4.35-.43-1.54.95-16.23.76-19.23-.19-2.99-.98-3.73-2.42-3.72-1.43 0-4 1.41-4.9 2.6-.9 1.2-11.65 12.75-12.53 13.67-.87.91-1.13-.96-1.13-.96s2.76-12.15 3.62-16.33c1.9-9.3 4.62-16.77 5.8-20.7.15-.5-8.5 1.16-10.59 1.53-.68.12-1.94-.07-1.97.67Zm320.84 31.18c.64.5.98 1.72 2 .82s4.8-5.72 4.8-5.72l.83-1.46s-5.36-3.47-11.42-3.25c-6.05.23-9.63.95-13.31 3.14-3.7 2.2-6.56 6.14-7.27 9.13-.75 3.19.23 8.33 1.71 10.49 1.72 2.51 4.87 5.39 8.5 6.37 1.64.44 3.13.65 4.51.7 3.56.13 6.4-.83 9.16-1.83 3.82-1.39 5.01-3.15 6.62-4.97a9.67 9.67 0 0 0 2.03-4.12s-.18-1.49-1.87-1.1c-1.68.4-4.46 1.55-8.5 2.12-4.04.58-6.24.12-8.96-.86-3.3-1.2-5.4-3.02-5.93-6.83-.54-3.77 1.15-5.1 4.95-6.32 3.11-1 5.3-.19 7.41.97 2.11 1.17 3.74 1.94 4.74 2.72Zm17.28-31.53s-6.77 42.45-8 46.6c-1.22 4.17-1.4 4-.13 4.27 1.28.28 2.66.86 4.47-.47 1.82-1.33 6.8-7.75 9.78-11.25 2.07-2.43 7.93-8.52 8.3-6.93.37 1.58-.38 10.58-.15 12.74.24 2.16.68 2.76 1.44 3.84a8.23 8.23 0 0 0 3.13 2.63c.93.36 2.97-.26 2.97-.26s2.62-1 4.05-2.06c1.43-1.05.9-2.3.9-2.3-.27.09-2.44-.84-3.4-4.35-.43-1.54.95-16.23.76-19.22-.18-3-.98-3.74-2.41-3.73-1.44 0-4.01 1.41-4.9 2.61-.9 1.2-11.65 12.74-12.53 13.66-.88.92-1.13-.96-1.13-.96s2.76-12.14 3.61-16.32c1.9-9.3 4.62-16.78 5.8-20.71.15-.49-8.49 1.17-10.58 1.54-.69.12-1.94-.07-1.98.67ZM43.65 71.02c-.7.14-1.25.3-1.37.38-.36.27-.57.66-.57 1.06 0 .45.82 3.38 1.08 3.85.27.5.76.8 1.37.83.65.04 3-.4 3.29-.61.36-.27.57-.66.57-1.07 0-.55-.9-3.59-1.2-3.99-.52-.74-1.18-.84-3.17-.45Zm675.47-44.07c.03-1.66-1.66-2.84 1.1-2.93 2.75-.09 7.58-.3 9.07-.24 1.48.08 1.13 1.57 1.13 1.57s-5.03 18.74-5.37 21.86c-.33 3.12-.6 4.5.5 3.75s6.9-5.32 11-5.44c4.11-.12 8.5.23 10.52 2.55 2.01 2.33 1.93 6.06-.46 9.42-2.39 3.36-4.7 5.96-6.21 6.96-1.52.99-3.86 1.1-1.41 2.07 2.44.97 4.96 3 7.6 2.9 2.62-.1 3.59-.27 3.22.9-.38 1.18-3.13 4.41-4.52 5.32-1.39.92-2.16 1.55-3.44 1-1.28-.55-10.14-6.18-12.74-7.54-2.6-1.35-5.69-2.43-5.69-2.43s-1.3.99-2 2.38-2.83 4.72-4.04 5.89a5.18 5.18 0 0 1-3.22 1.12c-.8 0-2.18-.32-2.11-1.11.37-4.33 3.46-19.33 4.35-24.84.88-5.5 2.67-20.95 2.72-23.16ZM459.88 35.9c.1-1.18 8.22.02 8.22.02s-.92 9.78-1 10.23c-.08.41 9.77.96 9.77.96s-2.69 6.63-3.26 7.28c-.51.59-7.54.41-7.54.41l-.82 7.03s-.47 3.87 3.78 5 3.71-.03 5.02.95c1.23.92-6.56 8.12-6.56 8.12s-3.68 1.14-7.68-1.28c-2.5-1.5-5.13-4.99-4.85-9.23a92.42 92.42 0 0 1 1.57-10.65s-3.18.38-4.21.17c-.81-.17-1.91-.5-2.02-1.44-.1-.97.37-3.04 1.6-4.79 1.23-1.74 6.08-2.32 6.08-2.32s1.77-8.96 1.9-10.46ZM798 35.57c.1-1.19 8.23.01 8.23.01s-.92 9.78-1 10.24c-.08.4 9.77.95 9.77.95s-2.7 6.63-3.27 7.29c-.5.58-7.54.4-7.54.4l-.82 7.03s-.47 3.87 3.78 5c4.25 1.14 3.71-.02 5.02.95 1.23.92-6.55 8.12-6.55 8.12s-3.69 1.15-7.69-1.27c-2.49-1.51-5.13-5-4.84-9.24a92.51 92.51 0 0 1 1.56-10.64s-3.17.38-4.21.16c-.8-.16-1.9-.5-2.02-1.44-.1-.96.38-3.04 1.6-4.78 1.23-1.75 6.08-2.33 6.08-2.33s1.77-8.95 1.9-10.45ZM65.05 63.04c.05.05.3.66.54 1.35l1.9 5.36c.8 2.27 1.46 4.18 1.46 4.26 0 .07-.07.2-.15.27-.15.14-1.6.6-1.88.62-.31 0-.53-.37-.96-1.58l-1.87-5.3a86 86 0 0 1-1.44-4.25c0-.26.18-.4.7-.56l.83-.24c.38-.12.7-.1.87.07Zm12.03-3.55c.51.23 1.06.71 1.38 1.2.1.16.57 1.42 1.05 2.78l1.1 3.18c.22.6.26.8.26 1.5 0 .74 0 .85-.25 1.35a2.9 2.9 0 0 1-1.3 1.38c-.2.1-1.47.56-2.8 1-2.3.74-2.47.78-3.12.8-.6 0-.75-.04-1.23-.26a3.43 3.43 0 0 1-1.46-1.33c-.12-.2-.66-1.8-1.2-3.55-.9-2.89-1-3.25-1-3.8 0-.73.18-1.27.59-1.82.4-.52.86-.87 1.45-1.07 4.81-1.68 4.7-1.65 5.4-1.62.48.02.76.09 1.13.26Zm263.04-17.63c.26-.93-2.1-2.06-6.97-2.06-9.6 0-15.58 6.8-17.4 15.76-1.84 9 1.6 15.76 11.27 15.76 4.6 0 7.79-1.53 9.14-2.47.95-.68.75-1.26.48-1.94l-.76-2.07c-.4-1.13-.49-1.66-.92-1.62-1.26.13-3.72 1.76-6.47 1.76-5.4 0-7.78-3.56-6.61-9.46 1.15-5.81 4.66-10.48 10.56-10.54 3.17-.04 4.52 1.52 4.52 1.52s.9.13 1.65-1.14c1.18-2.01.92-1.43 1.5-3.5Zm-91.73.91c-.77 1.62-10.33 19.65-12.15 23.34-.67 1.35-1.24 3.64-.62 4.16.72.6 1.68.6 1.68.6h2.17c1.57 0 2.14-.8 2.77-2.38.24-.54 1.22-2.3 2.5-4.64h11.35c.46 2.2.58 4.1.71 4.77.17.77-.04 2.25 2.08 2.25h1.85c1.62 0 2-1.03 1.95-2.56-.11-2.39-4.02-23.96-4.07-25.5-.15-1.53-.66-2.56-2.6-2.56h-4.06c-2.11 0-2.86 1.03-3.56 2.52Zm56.65 1.13c-.78 3.96-3.78 20.17-4.62 23.73-.32 1.4-.64 3.24 1.47 3.24h2.25c2.75 0 2.45-2.11 2.62-3.64.36-2.26 3.74-19.5 4.72-23.78.33-1.4.64-3.2-1.43-3.2h-2.3c-2.75 0-2.4 2.11-2.7 3.65Zm-100.97-1.18c-.59 1.85-6.24 22.12-7.35 25.68-.46 1.4-.49 2.47 1.58 2.47h2.3c2.16 0 2.02-1.08 2.42-2.65.58-2.48 3.9-16.26 5.13-21.53h.27c.2 2.43 1.54 20.22 1.67 22.07.06.58.53 1.4 1.61 1.4h3.97c.72 0 1.42-.36 1.98-1.4.77-1.58 6.54-18.07 7.9-20.81-.44 3.73.05 18.37-.17 20.18-.2 1.4-.77 2.74 1.48 2.74h2.02c2.84 0 2.95-.96 3.16-2.49.5-4.6-1-19.29-.46-22.54.24-1.4.06-5.57-2.06-5.57h-4.37c-.99 0-2.17.05-2.86 1.5-.76 1.52-6.52 18.25-6.52 18.25h-.36s-2.33-16.62-2.5-18.24c-.1-1.35-1.23-1.53-2.04-1.53h-4.37c-1.98 0-2.24 1.75-2.43 2.47Zm82.02 2.26c5.23 0 6.47 2.97 6.47 2.97s1.77-1.13 2.58-2.03c1.85-2.07 1.2-3.06.38-3.7-.82-.62-3.35-2.42-8.76-2.42-9.28 0-15.72 6.8-17.54 15.76-1.82 8.92 5.17 15.31 13.14 15.31 6.8 0 11.23-4.27 11.48-4.6 3.13-4.11 3.56-7.42 3.65-8.54.11-1.48-1.6-4.06-3.17-4.06l-9.1-.1c-.4 1.1-.82 5.5-.14 5.5l5.2.31s-.1 5.8-7.34 5.8c-4.2 0-9.01-2.5-7.56-9.8 1.28-6.44 5.71-10.4 10.71-10.4ZM602.41 63.6c3.93.03 11.83.3 11.83.3l-1.7 6.84s-6.93-3.56-8.75-4.51c-.91-.48-1.38-.56-2.08-1.41-.1-.13-.73-1.07-.82-1.07a7.46 7.46 0 0 1 1.52-.15Zm-528.83-.76c-1.45.56-1.8.79-2 1.28-.23.5-.15.95.44 2.73.47 1.38.62 1.74.83 1.97.61.64 1.08.65 2.93.06 1.15-.37 1.43-.5 1.64-.7.31-.33.5-.78.5-1.17 0-.31-.96-3.33-1.21-3.85-.26-.5-.91-.88-1.48-.86-.14 0-.88.25-1.65.54Zm15.45-8.99c.16.17 2.05 2.4 4.2 4.95 2.64 3.11 3.94 4.7 3.94 4.82 0 .19-.01.2-1.94 1.02-.6.26-.63.25-1.59-.88l-.97-1.14c-.06-.08-.47.05-2.32.8l-2.24.93.02 1.57.02 1.56-1.13.47c-1.16.5-1.41.55-1.56.37-.04-.04-.15-1.46-.25-3.12l-.25-4.2c-.32-4.98-.34-5.52-.23-5.64.1-.1 3.83-1.8 3.96-1.8.04 0 .19.13.34.3ZM71.78 12.86l-1.21.11a42.63 42.63 0 0 0-29.4 15.96 42.95 42.95 0 0 0-8.63 18.89A43.54 43.54 0 0 0 33 65.44c.17.72.2.77.38.76.25-.02 2.3-.29 2.32-.3a43.73 43.73 0 0 1-1.16-6.44 54.37 54.37 0 0 1-.1-6.6A40.36 40.36 0 0 1 70.4 15.5c1.7-.2 6.74-.2 8.41 0 4.32.53 7.85 1.45 11.48 2.99a40.73 40.73 0 0 1 19.98 18.45l.56 1.09.63-.38 1.04-.6c.23-.14.44-.27.46-.3.1-.15-1.82-3.48-2.93-5.1a42.63 42.63 0 0 0-16.42-14.38 41.7 41.7 0 0 0-14.55-4.26 89.7 89.7 0 0 0-7.28-.15ZM50.76 24.21c-.19.2-.2.33-.04.66.13.23.12.25-.35 1.1a60.4 60.4 0 0 0-2.8 5.92l-.3.74-.34-.05-1.74-.37a22 22 0 0 0-1.6-.32c-.3 0-.5.15-.63.45-.1.24-.1.32 0 .55.14.35.38.44 2.19.83l1.47.32c.07.02.05.17-.1.55-.33.9-1.07 3.28-1.5 4.88-.93 3.49-1.77 8.76-1.77 11.15v.6h-1.31c-1.43 0-3.6-.17-5.06-.38-.9-.13-.93-.13-1.14.02-.4.3-.43.82-.08 1.15.1.1.38.2.66.24 1.41.25 4.42.5 6 .5h.82l.06 1.83c.07 2.47.26 4.37.7 6.78.15.84.63 3.04.67 3.1.03.02 1.59-.3 1.66-.35a3.8 3.8 0 0 0-.16-1 46.63 46.63 0 0 1-1.13-9.57v-.79l.35-.03c.19-.02.96-.09 1.72-.13 2.27-.16 4.65-.49 6.88-.98.6-.13 1.15-.23 1.2-.2.06.01.12.22.15.46.18 1.39 1.43 6.9 1.98 8.78.2.67.18.67 1.06.4.41-.14.6-.23.58-.3a101.2 101.2 0 0 1-1.91-8.69l-.16-.98c-.04-.14.02-.18.3-.26a35.7 35.7 0 0 0 2.43-.8l.3-.13.26.32c.57.7 1.17 1.14 1.41 1.04.1-.03.12-.13.07-.55-.02-.27-.07-.6-.1-.7l-.04-.22.48.03c.64.05.99.17 1.09.4.1.2.38.36.72.36.55 0 1.32.18 1.5.35.17.15.2.22.15.5-.07.43.13.87.5 1.08.14.08.3.28.37.42.14.36.25.43.82.6.33.1.57.21.74.4.42.44 1.38.48 1.99.06.43-.29 1.03-.24 1.8.15l.57.28 2.2-.01c1.64-.01 2.23-.04 2.32-.12.17-.14.16-.53-.04-.72-.15-.16-.26-.17-2.5-.17h-2.35l-.4-.64h-.58c-.32 0-.99.04-1.5.1-1.2.12-1.46.04-1.83-.52-.16-.25-.33-.42-.46-.44-.18-.04-.2-.07-.17-.4.02-.27-.02-.44-.18-.72a1.6 1.6 0 0 1-.21-.55c0-.33-.2-.4-1.1-.47-.88-.07-1.02-.12-1.19-.47-.1-.21-.1-.21-.97-.19-.68.03-.87.01-.87-.08v-.48c.02-.44-.1-.55-.62-.55-.5 0-.55-.08-.43-.62.26-1.15.16-1.56-.47-2-.3-.22-.42-.25-1.09-.28-.66-.03-.77-.01-.96.14-.28.23-.41.82-.34 1.6l.06.6h-.22c-.14 0-.34-.12-.57-.34a1.9 1.9 0 0 0-.59-.39c-.3-.07-.55-.59-.7-1.5a3.75 3.75 0 0 0-.2-.8 1.67 1.67 0 0 0-.41-.25c-.29-.13-.33-.18-.33-.42 0-.42-.2-.81-.47-.96-.14-.06-.26-.17-.26-.22-.03-.2.02-.43.14-.76.16-.43.1-.64-.28-1.09-.39-.44-.45-.67-.3-1.18.1-.32.11-.8.08-2.44a26.34 26.34 0 0 0-.08-2.1c-.03-.06.02-.25.12-.44.16-.34.16-.38.05-.65-.06-.16-.18-.32-.25-.34-.17-.07-.15-.14.12-.53.21-.3.24-.4.24-.9 0-.3.05-.65.12-.77.11-.23.24-1.6.21-2.36l-.01-1.28c0-1.19-.08-1.3-1.04-1.55-.46-.12-.86-.52-.93-.92a1.17 1.17 0 0 0-.75-.82 3.4 3.4 0 0 1-.56-.2c-.43-.2-.63-.2-.84 0Zm673.8 34.17c3.7-5.01 6.14-7.53 9.77-7.52 3.64.01 4.45.9 4.57 2.4.13 1.51.33 2.46-.43 4.91s-1.61 3.53-3.8 4.62a12.19 12.19 0 0 1-7.64 1.1c-2.13-.28-3.75-.47-4.58-1.05-1.04-.71-.52-.92 2.1-4.46Zm-623.14-9.72c1.06.28 1.82.96 2.41 2.17.84 1.7.78 3.38-.17 4.36-.17.17-.29.31-.26.33.01.02.9.59 1.97 1.27 1.07.68 2.02 1.32 2.13 1.4.12.11.17.24.16.38-.02.17-.16.27-.83.62-.45.23-.87.42-.93.43-.07 0-1.1-.66-2.3-1.46-1.52-1-2.26-1.45-2.42-1.45a6 6 0 0 0-1.75.79c0 .04.36 1.01.81 2.15.98 2.5 1 2.33-.16 2.85-.85.38-1.2.43-1.41.2-.11-.12-4.26-10.28-4.51-11.05-.17-.52-.07-.63 1.05-1.17 2.64-1.28 3.59-1.7 4.02-1.8a5.54 5.54 0 0 1 2.19-.02Zm-13.8 8.57c-.07.1-.07.63 0 2.49.05 1.3.11 2.43.14 2.5.07.24.38.17 1.86-.47 1.59-.67 1.8-.78 1.8-.96 0-.15-3.45-3.68-3.6-3.68-.05 0-.14.06-.2.12Zm916.8-14.87c.7-5.61-2.3-9.52-8.75-9.52h-5.86c-2.32 0-2.19 1.9-2.34 3.32-.07 1-1.1 19.09-1.53 22.37-.18 1.3-.33 3 1.42 3h1.9c1.28 0 1.54-.59 1.62-2.38.01-1.16-.08-6.52.07-7.56h2.52l3.85 7.2c.7 1.59.8 2.74 2.96 2.74 2.13 0 3.94.2 3.77-1.14.2.16-1.77-2.66-2.3-3.75l-3.54-6a10 10 0 0 0 6.21-8.28Zm71.12-8.2c-.05.46-1.06 15.95-1.22 18.19l-2.25-3.4S1062.46 33.7 1062 33.1c-.17-.22-3.73-.15-3.73-.15-2.09 0-2.56 1.35-2.72 2.77-.1.95-.8 19.23-1.27 22.52-.18 1.28-.32 2.99 1.42 2.99h1.94c2.32 0 1.92-1.96 2.04-3.37 0-.79.28-13.7.58-16.5 1.62 3.25 10.53 16.87 11 18.26.5 1.45 1.34 1.8 2.86 1.9l3.4-.07c2.35 0 1.92-1.96 2.04-3.37.07-2.08.97-20.97 1.16-22.43.14-1.29.33-2.95-1.42-2.95h-1.86c-1.67 0-1.87.75-1.9 1.46Zm-93.99.22c-.65-.59-2.63-1.96-6.73-1.96-8.09 0-13.82 6.05-14.76 14.32-.94 8.32 3.54 14.79 11.7 14.79 3.88 0 6.46-1.42 7.54-2.29.75-.62.55-1.16.27-1.79l-.78-1.91c-.41-1.04-1.06-.7-1.67-.3a8.24 8.24 0 0 1-4.8 1.34c-4.55 0-8.05-4.4-7.46-9.84.59-5.36 4.73-9.54 9.7-9.54 3.84 0 4.9 1.68 5.52 1.8.37.06.6-.1 1.32-1.13 1.42-1.91.75-3 .15-3.5Zm-34.27 9.68c-1.87-.58-2.7-1.33-2.54-3.2.25-2.24 1.82-3.82 4.7-3.82 3.73 0 4.2.65 4.2.65s.63-.58 1.1-1.5c1.02-1.95.6-2.9-.62-3.66-.88-.58-.94-.1-4.36-.1-5.73 0-9.77 3.6-10.25 8.68-.4 4.4 1.12 6.2 4.4 7.16l2.92.62c2.54.71 2.79 1.52 2.6 3.18-.2 2.33-2.2 3.91-5.13 3.91-4.32 0-4.72-1.55-4.72-1.55s-1.27 1.43-1.74 2.63c-.75 1.67-.17 2.46 1.36 3.33.82.5 2.48.8 4.43.85 5.77.17 10.37-3.2 10.86-8.73.31-3.62-1.03-6.28-5.73-7.74l-1.48-.71Zm65.95-7.73c-.1.96-.93 18.63-1.36 21.91-.18 1.3-.33 3 1.42 3l1.82-.02 10.3-.1c1.33 0 1.58-.26 1.7-1.34l.21-1.95c.13-1.17-.3-1.75-1.4-1.67-1.16.09-5.91.22-8.8.22.2-2.17-.08-4.51.22-7.21 2.89-.05 6.87-.03 7.97-.03.87 0 1.2-.21 1.32-1.3l.18-1.66c.1-1-.46-1.37-1.15-1.33-.91.04-5.35.22-8.16.22l.4-7.41h8.45c1.1.04 1.68-.42 1.8-1.58l.16-1.46c.12-1.08-.03-1.78-1.36-1.78l-11.68.12c-2.31 0-1.92 1.96-2.04 3.37Zm21.21-.06c-.1.96-.93 18.63-1.36 21.91-.18 1.3-.33 3 1.42 3l1.82-.02 10.3-.11c1.33 0 1.58-.25 1.7-1.33l.21-1.96c.13-1.16-.3-1.74-1.4-1.66-1.16.08-5.91.21-8.8.21.2-2.16-.07-4.5.22-7.2 2.89-.05 6.87-.04 7.97-.04.87 0 1.2-.2 1.32-1.29l.18-1.66c.1-1-.46-1.37-1.15-1.33-.91.04-5.35.21-8.16.21l.4-7.4h8.45c1.1.04 1.68-.42 1.8-1.58l.16-1.46c.12-1.08-.03-1.79-1.36-1.79l-11.68.13c-2.31 0-1.92 1.96-2.04 3.37ZM760.68 60.36c-.28-2.5.18-6.04 5.93-8.3 4.57-1.81 6.16-1.4 7.8-.16 1.56 1.2 2.4 2.04 2.55 3.54.17 1.7.1 2.28-3.83 3.2-3.92.9-6.49 1.1-8.41 1.43-1.8.3-3.95 1.17-4.04.29ZM253.3 46.28c.1 1.98 2.55 13.28 2.35 13.3l-9.02-.06c3.01-5.85 5.75-11.08 6.67-13.24Zm344.71 9.47 18.12.47 7.15-28.61s.85-1.43-2.5-.6c-3.34.83-12.36.68-16.42 10.46-4.06 9.8-5.65 14.45-5.86 15.98a12.6 12.6 0 0 1-.49 2.3ZM112.94 41.66c.12.1.88 1.91.88 2.07 0 .33-.26.52-1.64 1.26-.76.4-1.4.75-1.4.76-.03.01.16.5.4 1.1 2.03 5.1 2.96 7.5 2.96 7.65 0 .27-.22.46-1.07.95-.84.47-1.06.53-1.27.33-.08-.07-.9-2.06-1.83-4.42a87.74 87.74 0 0 0-1.77-4.32c-.05-.02-.76.33-1.6.78-.82.44-1.56.8-1.65.8-.24 0-.36-.18-.8-1.2-.36-.85-.38-.92-.28-1.12.1-.15 1.26-.81 4.41-2.5 4.15-2.2 4.44-2.35 4.66-2.14ZM99.98 51.2c-.08.01-.68.28-1.34.58-1 .45-1.2.57-1.22.73-.03.2.97 2.7 1.18 2.93.07.08.2.15.29.15.09 0 .67-.23 1.28-.5.9-.4 1.17-.55 1.4-.81.5-.6.56-1.3.15-2.07-.27-.51-.49-.74-.88-.92a1.18 1.18 0 0 0-.86-.1ZM78.05 16.06c-.22.17-.28.51-.12.81.05.09.73.95 1.52 1.92 1.74 2.14 1.94 2.47 1.54 2.67-.36.2-.64.02-1.82-1.14a10.9 10.9 0 0 0-1.36-1.2 1.33 1.33 0 0 0-.68 0c-1.25.22-1.98-.03-2.54-.9-.35-.54-.6-.6-1.78-.46-.5.06-1.25.1-1.67.1-.73 0-.77 0-.86-.19-.13-.25-.23-.3-.7-.36-.31-.05-.4-.1-.5-.3-.07-.12-.13-.28-.13-.35 0-.27-.37-.4-1.08-.35-.78.04-1.05.17-1.23.6l-.11.27h-1.05c-.99 0-1.05 0-1.48.24-.25.13-.53.24-.62.24-.38 0-.92.71-1.02 1.36-.04.24-.1.35-.25.41-.13.06-.87.1-2.08.1-2.05 0-2.64.07-3.22.37-.88.48-.77 1.38.23 1.85l.46.21 2.64.01 2.64.02.38-.35c.23-.2.45-.34.57-.34.14 0 .28-.1.43-.28.22-.27.25-.28.73-.28.63 0 1.07.17 1.07.4 0 .14.05.16.37.16.28 0 .38.03.44.17.07.11.09.92.07 2.6l-.02 2.45.26.45c.14.25.26.53.26.62 0 .3.38.65.83.79.5.15 1.67.16 2.02 0 .14-.05.33-.18.41-.28.14-.15.24-.17.9-.17.62 0 .78-.03 1.08-.2.42-.24.58-.25.78-.04.13.13.25.16.89.16.87 0 1.11-.12 1.25-.65.1-.35.05-.62-.19-1.09a1.38 1.38 0 0 1-.15-.56c.01-.33-.1-.5-.43-.67-.35-.18-1-.95-1-1.19 0-.27.22-.53.46-.53.5 0 .82.16.99.48.09.17.28.4.43.49.27.16.38.17 1.64.15 1.21-.03 1.35-.04 1.44-.18.25-.44.3-.46.98-.48.58-.01.68.01.98.2.18.12.38.34.46.5.16.34.3.4.74.3.67-.17.77-.1.85.57.04.38.04.57-.05.73a.96.96 0 0 1-.88.55c-.95 0-1.62 1.31-1.2 2.35.16.41.27.44 1.48.37.93-.06.95-.06 1.08.13.07.1.13.26.13.36 0 .23-.97 1.41-1.32 1.6-.4.22-.47.44-.44 1.55.02.9 0 1-.2 1.5a3 3 0 0 0-.22.71c0 .29.22.63.52.81.33.2.45.39.45.68 0 .21-.26.45-.5.45-.25 0-.46.46-.75 1.6-.3 1.26-.3 1.5.06 2.16.12.22.22.5.22.63 0 .15.09.29.33.48 1.05.84 1.12.98.75 1.27-.27.2-.37.2-.56 0a2.37 2.37 0 0 0-1.1-.44c-.25-.04-.36-.12-.55-.4-.3-.43-.45-.52-.81-.51-.19 0-.3-.04-.36-.14-.34-.6-.87-.69-1.7-.29-.65.3-.78.46-.84 1.07-.05.37-.1.54-.24.64-.26.21-.5.12-.5-.2 0-.37-.18-.53-.59-.53-.19 0-.54-.07-.78-.16-.58-.2-.93-.2-1.35 0-.38.18-.5.35-1.18 1.42-.3.49-.49.89-.55 1.16-.08.49-.14.6-.52 1.05-.41.5-.38.74.22 1.64.17.25.3.5.3.56 0 .07.2.31.45.55.24.25.44.5.44.57 0 .36.74 1.15 1.35 1.42.26.12.53.33.75.6.3.35.39.4.64.4.4 0 .68-.25 1.37-1.2.3-.42.64-.83.75-.91.38-.29 1.3-.3 1.57-.02.08.08.12.28.12.57 0 .38-.03.46-.28.75-.51.56-.33 1 .56 1.37.33.14.63.25.68.25.04 0 .27.16.5.37.45.38.47.38 1.02.15.33-.14.33-.24.04-.65-.3-.4-.47-.55-.81-.67-.6-.2-.69-.47-.46-1.5.15-.6.12-.8-.18-1.1a6.62 6.62 0 0 0-2.1-.97c-.9-.21-1.59.26-1.76 1.18-.1.61-.59 1.01-1.21 1.01-.61 0-1.04-.46-1.17-1.26-.1-.58-.34-.86-1.03-1.17-.3-.14-.52-.29-.55-.4-.08-.26.26-1.22.53-1.47.16-.15.56-.32 1.27-.54 1.14-.37 1.48-.54 1.69-.88.23-.37.34-.42 1-.42.72 0 1.07-.13 1.66-.56.55-.42.7-.5 1.03-.5.59 0 1.03.24 1.67.9.46.47.76.7 1.15.88.62.3.74.4.7.67-.04.29-.49.47-1.18.47-.63 0-.79.08-.88.46-.07.29.17.47.71.55.7.1.8.16.75.43-.04.19-.02.26.13.33.24.13 3.56.65 4.16.65.7 0 1.13-.22 1.33-.66.32-.7.13-1.42-.43-1.72a3.52 3.52 0 0 0-1.3-.2c-1.08-.07-2.21-.35-2.3-.56-.02-.07.06-.3.18-.51.12-.21.22-.5.22-.64 0-.13.04-.4.09-.6.13-.52.03-.89-.34-1.3-.34-.37-.37-.44-.23-.83.07-.2.23-.33.94-.7.47-.26.87-.43.9-.4l.6.93a35.62 35.62 0 0 1 3.5 7.05c.15.46.3.82.35.81a7.33 7.33 0 0 0 1.46-.74 20 20 0 0 0-.83-2.32 39.48 39.48 0 0 0-2.94-5.6l-.67-1.06.34-.17a74.14 74.14 0 0 0 6.86-4.5c1.45-1.1 1.35-1.03 1.39-1l.52.66a52.1 52.1 0 0 1 5.72 8.87 6.8 6.8 0 0 0 1.5-.83c0-.12-1.11-2.15-1.8-3.32a64.18 64.18 0 0 0-4.4-6.25l-.22-.26 1.13-1.08c1.6-1.52 3.27-3.48 3.4-3.97.12-.48-.42-1-.9-.88-.14.04-.48.4-.99 1.04-.8 1-3.44 3.68-3.6 3.68-.06 0-.3-.25-.55-.55-.7-.83-4.2-4.33-5.41-5.39-2.03-1.77-4.67-3.8-5.25-4.06-.24-.1-.27-.13-.22-.35.03-.14.33-.65.67-1.13.35-.49.66-.98.7-1.1.14-.55-.41-1.48-.88-1.48-.1 0-.3.09-.42.2-.21.18-.24.27-.3.78-.07.82-.17 1.1-.45 1.24-.2.11-.24.17-.24.47 0 .2-.05.42-.11.5-.1.14-.14.14-.37.04-.4-.16-2.67-2.81-3.17-3.7-.46-.8-1.05-1.05-1.56-.66ZM49.53 34.52c.48.06 1.4.18 2.03.24a8.2 8.2 0 0 1 1.22.18c.18.19.25 1.09.25 3.18 0 2.57.05 2.99.42 3.25.23.17.24.2.18.68-.04.37-.02.56.08.75.07.13.13.38.13.57 0 .24.07.44.28.74.2.31.28.5.28.75 0 .18.06.41.12.5.1.14.1.22.02.43-.07.2-.06.55.1 1.89.11.9.2 1.76.2 1.92v.28l-.8.17c-1.42.33-2.94.59-4.57.79-1.75.22-4.34.42-4.42.35-.14-.15.27-4.15.66-6.4.55-3.2 1.68-7.45 2.72-10.21.08-.21 0-.21 1.1-.06Zm8.34 13.61.61.13.05.57-.83.26c-1.2.37-1.14.37-1.2-.06-.03-.2-.08-.63-.1-.96l-.07-.6.46.26c.25.16.73.33 1.08.4Zm26.48-1.68c.42.14.6.16 1.27.12.75-.05.79-.05.87.12.13.23.03.63-.19.76-.1.08-.5.15-.92.17-.69.06-.76.04-1.18-.16a3.54 3.54 0 0 1-.7-.45c-.22-.21-.24-.26-.15-.42.19-.37.32-.38 1-.14Zm913.11-3.89a4.79 4.79 0 0 1-4.5 4.18l-1.78-.03c.18-1.63.43-7.37.77-9.74l2.73.1c2.7-.01 3.02 3.53 2.78 5.5Zm-922.92.78c.21.2.2.68-.01.88-.12.1-.36.16-.91.2l-1.09.12c-.3.06-.34.04-.34-.1 0-.2.48-.76.85-1 .54-.33 1.2-.38 1.5-.1Zm817.44-26.75a13.24 13.24 0 1 1-.02 26.49 13.24 13.24 0 0 1 .02-26.48Zm.01 3.18a10.18 10.18 0 1 1 0 20.37 10.18 10.18 0 0 1 0-20.37ZM83.75 38.07l.56.8-.42.24c-.73.4-1.67.86-1.76.86-.05 0-.12-.08-.17-.19-.12-.25.08-.67.41-.9.24-.16.4-.52.4-.91 0-.25.23-.77.32-.73.05.01.34.4.66.83Zm-6.68-18.03c.14.06.46.34.7.62 1.35 1.6 1.4 1.61 3.72 1.64 1.55.01 1.8.04 1.86.15.04.07.7.6 1.46 1.18.77.58 1.67 1.28 2 1.54.53.45.57.5.38.5-.12 0-.43-.1-.68-.22a2.23 2.23 0 0 0-.75-.22c-.39 0-.91.36-1.19.83-.19.32-.2.46-.22 1.03 0 .54.03.7.16.88a3.3 3.3 0 0 0 1.56.89c.48.06.76-.04 1.2-.45.3-.26.41-.32.68-.32.4 0 .58-.23.63-.86.02-.24.07-.43.11-.43.1 0 4.63 4.53 5.12 5.12.32.38.36.47.28.58-.16.2-2.1 1.63-3.35 2.48a82.77 82.77 0 0 1-4.18 2.63l-.7.42-.83-1.14c-.95-1.31-1.28-1.68-1.5-1.68-.35 0-.37-.14-.28-1.76a28 28 0 0 1 .14-1.66c.02-.08.19-.22.36-.3.57-.3.76-.69.85-1.79.04-.4.03-.67-.04-.78a3.52 3.52 0 0 0-.92-.59 5.9 5.9 0 0 1-1.03-.61l-.2-.2.16-.3c.1-.19.38-.44.76-.7.33-.21.65-.48.72-.58.17-.27.37-1.69.26-1.89-.17-.32-.5-.41-1.44-.4l-.86.01-.65-.37c-.35-.21-.8-.41-.97-.46-.5-.14-1.89-.04-2.83.2-.94.24-1.02.25-1.32.1-.34-.18-.51-.5-.55-1.05-.06-.65-.12-.74-.64-1.03-.62-.35-.85-.76-.58-1.03a7.8 7.8 0 0 1 2.6.02Zm-1.83 13.39c-.48.08-.8.3-1.13.79-.24.35-.27.44-.3 1.1-.02.84.06 1.05.46 1.28.35.2 1.32.22 1.68.04.3-.16.31-.17.57-1.2.23-.87.24-1.2.08-1.51-.26-.5-.63-.63-1.36-.5Zm819.2-2.77c.37 0 1.84-.08 2.4-1 .69-1.13.73-2.53.65-3.63-.08-1.17-.37-2.47-1.69-3.07-1.32-.61-7.39-.46-8.51-.49-1.13-.03-1.4.76-1.45 1.3l-.08 12.5 2.74.07.04-5.32s1.44-.21 2.9.12c.89.2 2.52 1.6 3.34 2.84.69 1.03.96 2.37.96 2.37s2.9.17 2.9.04c-.04-1.03-1.77-3.54-2.45-4.44-.85-1.12-1.52-1.27-1.75-1.3ZM52.36 26.48c.04.04.2.15.35.22.15.07.38.3.5.49.13.19.32.38.42.42.36.13.4.62.07.93-.21.18-.23.25-.26.94-.02.65-.05.79-.22.98-.18.22-.2.3-.2 1.2 0 1-.1 1.59-.3 1.67-.2.07-3.5-.3-3.61-.4-.15-.15 2.85-6.54 3.06-6.54a.3.3 0 0 1 .19.1Zm842.08 4.18a.37.37 0 0 0-.09 0h.1Zm-5.9-2.35.05-3.63 3.86-.09s1.85.12 2.24.95c.57 1.21.06 1.9.06 1.9s-.22.74-1.6.92a34.4 34.4 0 0 1-4.6-.05ZM86.57 26.43c.2.11.47.24.6.28.17.07.21.14.21.34s-.08.33-.38.61c-.51.49-.83.62-1.2.52-.4-.11-.5-.3-.52-.86 0-.55.13-.8.52-.97.33-.15.33-.15.77.08ZM69.72 23c.45.2.94.62 1.33 1.13.28.35.46.48 1.16.81.45.22.9.42 1 .45.2.06.47.35.54.58a.4.4 0 0 1-.06.31c-.1.13-.2.16-.59.14-.4-.02-.57.02-1.08.26-.45.2-.82.3-1.3.36-.37.05-.8.12-.96.17-.15.04-.44.08-.63.08-.46 0-.78-.31-.85-.82-.11-.83-.14-2.24-.06-2.73.12-.76.24-.9.76-.9.23 0 .56.08.74.16Zm.2-4.9c.04.1.1.28.12.4.1.5.4.56 1.94.38.74-.09.84-.08 1.12.05.32.14.5.38.42.52-.02.05-.22.08-.43.08-.2 0-.81.1-1.35.25-.53.12-1.1.24-1.27.24-.34 0-.63.22-.63.5 0 .09.04.4.1.7.1.52.1.52-.13.7a.76.76 0 0 1-.56.2c-.31 0-.38-.04-1.08-.74-.82-.81-.9-1-.6-1.38.1-.11.32-.28.53-.37.5-.24.72-.54.66-.91-.04-.24 0-.33.14-.46.43-.4.9-.47 1.02-.17Zm3.11 2.27c.26.26.61.97.61 1.22a.6.6 0 0 1-.17.38c-.14.13-.22.15-.5.1a8.53 8.53 0 0 0-1.24-.05c-1.05.02-1.13-.03-.8-.58.21-.37.5-.61 1.22-1 .58-.3.63-.32.88-.07Zm-10.53.13c.66.74-.05 1.08-1.9.9-.7-.06-.92-.11-1.05-.24-.15-.16-.15-.17-.02-.37.17-.26.16-.26 1.19-.45 1.13-.2 1.5-.17 1.78.16Zm3.68-2.24c.43.47.33.81-.28.99-.25.07-.84.33-1.29.57-.9.48-1.18.54-1.32.27-.08-.14-.05-.2.14-.43.14-.13.34-.46.46-.7.22-.46.5-.74.82-.83.09-.01.42-.04.73-.04.5-.01.6.01.74.17Z"/>
</svg>
    