<?xml version="1.0" encoding="UTF-8" standalone="no"?><!DOCTYPE svg PUBLIC "-//W3C//DTD SVG 1.1//EN" "http://www.w3.org/Graphics/SVG/1.1/DTD/svg11.dtd"><svg width="100%" height="100%" viewBox="0 0 756 1087" version="1.1" xmlns="http://www.w3.org/2000/svg" xmlns:xlink="http://www.w3.org/1999/xlink" xml:space="preserve" xmlns:serif="http://www.serif.com/" style="fill-rule:evenodd;clip-rule:evenodd;stroke-linejoin:round;stroke-miterlimit:2;"><rect id="Artboard1" x="0" y="0" width="755.411" height="1086.9" style="fill:none;"/><path d="M4.171,672.153c0,0 121.69,-74.143 165.877,-143.945c44.188,-69.802 127.773,-237.325 147.734,-284.427c19.961,-47.102 12.809,-72.242 98.092,-129.453c85.283,-57.211 196.783,-70.774 219.791,-76.945c23.008,-6.172 48.506,-37.115 77.037,-24.597c28.532,12.518 55.35,43.874 7.995,127.143c-48.777,85.769 -73.52,131.153 -73.52,141.786c-0,10.632 44.915,-9.722 44.915,-9.722l-0.155,178.36l-101.475,23.153c0,-0 -16.422,70.324 -77.775,127.791c-61.354,57.466 -100.133,77.087 -122.514,101.187c-22.381,24.1 -70.027,70.793 -90.59,107.805c-20.562,37.012 -188.621,272.937 -191.15,274.182c-2.824,1.391 -104.262,-412.318 -104.262,-412.318Z" style="fill:#F1F1F1;"/></svg>