<?xml version="1.0" encoding="UTF-8" standalone="no"?><!DOCTYPE svg PUBLIC "-//W3C//DTD SVG 1.1//EN" "http://www.w3.org/Graphics/SVG/1.1/DTD/svg11.dtd"><svg width="100%" height="100%" viewBox="0 0 756 1087" version="1.1" xmlns="http://www.w3.org/2000/svg" xmlns:xlink="http://www.w3.org/1999/xlink" xml:space="preserve" xmlns:serif="http://www.serif.com/" style="fill-rule:evenodd;clip-rule:evenodd;stroke-linecap:round;stroke-linejoin:round;stroke-miterlimit:1.5;"><rect id="Artboard1" x="0" y="0" width="755.411" height="1086.9" style="fill:none;"/><path d="M686.839,273.235l-35.04,11.776l-0,14.489l35.04,-1.692m-70.081,95.161c-0,-0 59.376,-12.552 70.081,-12.552m-159.448,-152.5c-0,0 -5.489,-27.605 -19.265,-44.538m79.599,288.919l99.114,-21.658m0,-438.857l-35.04,49.782c-0,0 -4.083,6.486 -0,13.134c4.083,6.649 36.572,39.283 48.141,40.141c8.559,0.635 12.14,-3.94 17.489,-9.466c6.993,-7.227 28.071,-34.788 29.265,-54.544c0.532,-8.813 -12.77,-27.108 -20.619,-32.216c-21.152,-13.765 -39.236,-6.831 -39.236,-6.831Zm-33.703,19.57c-45.854,57.901 -50.687,66.355 -76.88,112.605c-26.193,46.25 -40.563,100.479 -95,119.864m-470.067,405.837c0,-0 133.155,-103.73 171.984,-169.186c38.828,-65.455 145.382,-277.069 152.515,-294.825c7.133,-17.755 21.755,-79.88 80.186,-97.177c58.431,-17.297 225.519,-71.376 235.925,-77.118c10.405,-5.741 25.638,-23.677 46.548,-22.818c20.909,0.858 47.472,21.288 48.362,37.434c0.891,16.146 0.404,31.986 -8.047,51.742c-8.45,19.755 -50.546,114.791 -69.343,145.179c-18.797,30.388 -34.883,93.297 -38.475,101.43c-3.591,8.133 -29.713,97.973 -54.656,156.153c-24.943,58.18 -63.125,106.165 -83.643,127.912c-20.518,21.748 -41.154,24.289 -76.671,57.107c-35.517,32.818 -67.949,66.133 -96.022,103.26c-28.073,37.128 -78.541,105.727 -101.745,140.164c-23.203,34.438 -68.914,97.956 -81.757,118.995" style="fill:none;stroke:#000;stroke-width:7px;"/></svg>